<?xml version="1.0" encoding="UTF-8"?>
<svg id="Layer_2" data-name="Layer 2" xmlns="http://www.w3.org/2000/svg" viewBox="0 0 901.49 922.39">
  <defs>
    <style>
      .cls-1 {
        fill: #0c1219;
      }

      .cls-2 {
        fill: #a0b4cc;
      }
    </style>
  </defs>
  <g id="Layer_1-2" data-name="Layer 1">
    <rect class="cls-1" width="901.49" height="922.39" rx="50" ry="50"/>
    <g>
      <path class="cls-2" d="M234.36,439.3l-56.31,25.1,56.31,25.1,32.22,14.29,55.29,24.42v82.88l-87.51-38.71-62.36-27.8-87.3-38.71v-82.94l87.3-38.71,62.36-27.8,87.51-38.71v82.88l-55.29,24.43-32.22,14.29Z"/>
      <path class="cls-2" d="M535.7,245.22l-36.17,159.53-17.67,77.94-45.32,199.81h-64.85l45.32-199.81,17.66-77.94,36.16-159.53h64.86Z"/>
      <path class="cls-2" d="M822.86,423.35v82.93l-87.3,38.71-62.36,27.8-87.5,38.71v-82.88l55.29-24.42,32.21-14.29,56.29-25.1-56.29-25.09-32.21-14.29-55.29-24.43v-82.88l87.5,38.71,62.36,27.8,87.3,38.72Z"/>
    </g>
  </g>
</svg>