<?xml version="1.0" encoding="UTF-8"?>
<svg id="Layer_2" data-name="Layer 2" xmlns="http://www.w3.org/2000/svg" viewBox="0 0 787.99 645.62">
  <defs>
    <style>
      .cls-1 {
        fill: #a0b4cc;
      }
    </style>
  </defs>
  <g id="Layer_1-2" data-name="Layer 1">
    <g>
      <path class="cls-1" d="M174.66,297.41l-56.31,25.1,56.31,25.1,32.22,14.29,55.29,24.42v82.88l-87.51-38.71-62.36-27.8-87.3-38.71v-82.94l87.3-38.71,62.36-27.8,87.51-38.71v82.88l-55.29,24.43-32.22,14.29Z"/>
      <path class="cls-1" d="M475.99,103.33l-36.17,159.53-17.67,77.94-45.32,199.81h-64.85l45.32-199.81,17.66-77.94,36.16-159.53h64.86Z"/>
      <path class="cls-1" d="M763.16,281.46v82.93l-87.3,38.71-62.36,27.8-87.5,38.71v-82.88l55.29-24.42,32.21-14.29,56.29-25.1-56.29-25.09-32.21-14.29-55.29-24.43v-82.88l87.5,38.71,62.36,27.8,87.3,38.72Z"/>
    </g>
  </g>
</svg>